<?xml version="1.0" encoding="UTF-8"?>
<svg id="_图层_2" data-name="图层 2" xmlns="http://www.w3.org/2000/svg" xmlns:xlink="http://www.w3.org/1999/xlink" viewBox="0 0 101.35 190.44">
  <defs>
    <style>
      .cls-1 {
        fill: #3e3a39;
      }

      .cls-2 {
        fill: url(#_未命名的渐变_2);
      }
    </style>
    <linearGradient id="_未命名的渐变_2" data-name="未命名的渐变 2" x1="29.02" y1="21.96" x2="132.06" y2="198.72" gradientUnits="userSpaceOnUse">
      <stop offset="0" stop-color="#009f8d"/>
      <stop offset=".51" stop-color="#0064b4"/>
      <stop offset="1" stop-color="#009e41"/>
    </linearGradient>
  </defs>
  <g id="_图层_1-2" data-name="图层 1">
    <g>
      <path class="cls-1" d="M15.36,33.59c2.15-1.78,3.76-4.54,4.84-8.28,1.08-3.74,1.61-8.62,1.61-14.65V0h3.36V10.66c0,7.45-.81,13.34-2.42,17.69-1.61,4.35-4.08,7.44-7.39,9.28v-4.03Zm26.8,4.03c-3.31-1.84-5.78-4.93-7.39-9.28-1.61-4.35-2.42-10.24-2.42-17.69V0h3.36V10.66c0,6.03,.54,10.92,1.61,14.65,1.08,3.74,2.69,6.5,4.84,8.28v4.03Z"/>
      <path class="cls-1" d="M31.29,85.02h1.23c1.76,0,3.06-.38,3.91-1.12,.85-.75,1.27-1.92,1.27-3.5v-14.99h-12.36v5.52c0,4.73-.86,8.61-2.59,11.66-1.73,3.04-4.16,4.98-7.3,5.8v-3.48c2.12-.82,3.74-2.43,4.86-4.82s1.68-5.44,1.68-9.15v-13.63h-6.5v-3.36h11.72v-3.14h3.36v3.14h11.72v3.36H25.34v4.8h15.71v18.3c0,2.49-.76,4.44-2.27,5.86-1.51,1.42-3.6,2.12-6.26,2.12h-1.23v-3.36Z"/>
      <path class="cls-1" d="M15.32,136.03h11.81v-4.8h-6.92v-1.95c-1.39,.93-3,1.67-4.84,2.21v-3.53c1.39-.48,2.63-1.15,3.72-2s1.68-1.91,1.76-3.19h-4.97v-3.35h3.99v-12.23h-3.14v-3.36h3.14v-1.95h3.31v1.95h11.21v-1.95h3.31v1.95h3.23v3.36h-3.23v12.23h4.08v3.35h-5.01c.08,1.27,.67,2.34,1.76,3.19s2.33,1.51,3.72,2v3.53c-1.93-.57-3.55-1.32-4.88-2.25v2h-6.92v4.8h11.81v3.36H15.32v-3.36Zm11.81-8.15v-3.87h3.31v3.87h5.27c-1.44-1.5-2.21-3.2-2.29-5.1h-9.22c-.08,1.9-.85,3.6-2.29,5.1h5.22Zm7.26-18.86v-1.83h-11.21v1.83h11.21Zm0,5.22v-1.87h-11.21v1.87h11.21Zm0,5.18v-1.87h-11.21v1.87h11.21Z"/>
      <path class="cls-1" d="M15.32,190.43v-37.63h26.93v32.19c0,.99-.25,1.9-.74,2.72s-1.16,1.48-2,1.97-1.75,.74-2.74,.74H15.32Zm21.45-3.35c.59,0,1.1-.21,1.51-.62s.62-.9,.62-1.46v-28.88H18.68v30.96h18.09Zm-16.9-6.46c2.12-1.33,3.76-3.15,4.93-5.46,1.16-2.31,1.87-5.19,2.12-8.64h-6.5v-3.36h6.62v-4.5h3.36v4.5h6.33v3.36h-6.2c.25,3.46,.96,6.34,2.1,8.66,1.15,2.32,2.78,4.13,4.91,5.44v3.82c-4.16-1.98-7.09-5.29-8.79-9.94-1.73,4.64-4.69,7.96-8.88,9.94v-3.82Z"/>
    </g>
    <g>
      <path class="cls-1" d="M5.06,3.22c-.07,.43-.23,.79-.5,1.07-.26,.28-.63,.41-1.11,.41-.56,0-1.01-.17-1.33-.5s-.48-.8-.48-1.4V.9c0-.13,.03-.23,.1-.29,.07-.07,.15-.1,.26-.1H7.65c.11,0,.19,.03,.26,.1s.1,.16,.1,.29v1.48c0,.33-.04,.62-.12,.87-.08,.24-.19,.44-.33,.59s-.31,.27-.51,.34c-.2,.07-.41,.11-.66,.11-.35,0-.65-.1-.88-.3-.23-.2-.38-.46-.46-.78ZM2.29,1.25v1.26c0,.5,.09,.87,.28,1.11,.19,.24,.49,.36,.9,.36,.44,0,.75-.14,.94-.43,.19-.29,.28-.7,.28-1.25V1.25H2.29Zm3.07,0v1.13c0,.39,.09,.69,.26,.89,.18,.2,.42,.31,.73,.31s.54-.1,.73-.29c.19-.2,.28-.5,.28-.91V1.25h-2.01Z"/>
      <path class="cls-1" d="M2.51,9.08c-.32-.15-.57-.35-.74-.59-.17-.25-.26-.56-.26-.94,0-.3,.06-.58,.18-.83s.29-.47,.51-.65c.22-.18,.49-.32,.79-.42,.31-.1,.65-.15,1.03-.15,.46,0,.85,.06,1.18,.17,.33,.11,.6,.27,.81,.46,.21,.19,.36,.41,.46,.67,.1,.25,.14,.52,.14,.8,0,.37-.11,.69-.33,.94s-.47,.44-.79,.56h.68c.1,0,.19,.03,.26,.09s.11,.15,.11,.27c0,.12-.05,.21-.12,.27s-.16,.08-.26,.08H1.93c-.1,0-.18-.03-.26-.08s-.11-.15-.12-.28c0-.14,.04-.23,.11-.29,.08-.06,.16-.08,.26-.08h.58Zm1.52-2.84c-.6,0-1.06,.14-1.4,.4-.33,.26-.5,.63-.5,1.1,0,.24,.05,.44,.14,.61,.1,.17,.23,.31,.4,.42,.17,.11,.37,.2,.6,.25,.23,.06,.48,.08,.74,.08s.52-.03,.76-.09c.24-.06,.45-.15,.62-.27,.18-.12,.32-.26,.42-.43,.11-.17,.16-.37,.16-.59,0-.25-.04-.47-.13-.66s-.22-.34-.4-.46-.38-.22-.62-.27c-.24-.06-.51-.09-.8-.09Z"/>
      <path class="cls-1" d="M5.26,14.1c0,.2-.06,.32-.19,.35-.07,.03-.15,.03-.23,0-.16-.04-.23-.15-.23-.34v-2.34H1.89c-.11,0-.19-.03-.25-.08s-.09-.16-.09-.3,.03-.23,.09-.28,.14-.07,.25-.07H7.61c.16,0,.26,.03,.32,.09,.06,.06,.08,.17,.08,.33v2.91c0,.26-.11,.39-.33,.39-.12,0-.21-.03-.26-.1-.05-.07-.07-.17-.07-.3v-2.6h-2.09v2.34Z"/>
      <path class="cls-1" d="M2.51,19.21c-.32-.15-.57-.35-.74-.59-.17-.25-.26-.56-.26-.94,0-.3,.06-.58,.18-.83s.29-.47,.51-.65c.22-.18,.49-.32,.79-.42,.31-.1,.65-.15,1.03-.15,.46,0,.85,.06,1.18,.17,.33,.11,.6,.27,.81,.46,.21,.19,.36,.41,.46,.67,.1,.25,.14,.52,.14,.8,0,.37-.11,.69-.33,.94s-.47,.44-.79,.56h.68c.1,0,.19,.03,.26,.09s.11,.15,.11,.27c0,.12-.05,.21-.12,.27s-.16,.08-.26,.08H1.93c-.1,0-.18-.03-.26-.08s-.11-.15-.12-.28c0-.14,.04-.23,.11-.29,.08-.06,.16-.08,.26-.08h.58Zm1.52-2.84c-.6,0-1.06,.14-1.4,.4-.33,.26-.5,.63-.5,1.1,0,.24,.05,.44,.14,.61,.1,.17,.23,.31,.4,.42,.17,.11,.37,.2,.6,.25,.23,.06,.48,.08,.74,.08s.52-.03,.76-.09c.24-.06,.45-.15,.62-.27,.18-.12,.32-.26,.42-.43,.11-.17,.16-.37,.16-.59,0-.25-.04-.47-.13-.66s-.22-.34-.4-.46-.38-.22-.62-.27c-.24-.06-.51-.09-.8-.09Z"/>
      <path class="cls-1" d="M4.63,24.36c.5,0,.86-.1,1.06-.29,.2-.19,.31-.47,.31-.85,0-.16-.02-.32-.07-.48-.05-.16-.12-.31-.23-.44s-.24-.24-.41-.32c-.17-.08-.37-.12-.61-.12H1.89c-.22,0-.33-.12-.33-.35,0-.11,.03-.19,.09-.26,.06-.07,.14-.1,.24-.1H6.22c.11,0,.2,.03,.25,.1s.08,.15,.08,.26c0,.23-.11,.34-.33,.34h-.52c.11,.06,.22,.13,.33,.23,.11,.1,.21,.21,.3,.34s.16,.28,.22,.44c.06,.16,.08,.33,.08,.52,0,.24-.03,.46-.1,.67-.07,.21-.17,.38-.31,.53s-.32,.27-.53,.35c-.22,.09-.47,.13-.77,.13H1.89c-.22,0-.33-.12-.33-.35s.11-.35,.33-.35h2.74Z"/>
      <path class="cls-1" d="M1.82,30.39c-.27,0-.52-.05-.74-.16-.22-.11-.42-.25-.58-.45s-.29-.43-.37-.71-.13-.59-.13-.93c0-.16,.02-.33,.05-.52,.03-.19,.08-.36,.14-.53,.06-.17,.13-.31,.21-.43,.08-.12,.17-.2,.27-.24,.06-.05,.13-.08,.21-.08s.17,.03,.26,.1c.13,.1,.13,.21,0,.34-.14,.14-.25,.34-.34,.59s-.13,.53-.12,.82c.01,.43,.12,.78,.32,1.05,.2,.26,.48,.4,.83,.4h.72c-.3-.14-.53-.35-.67-.62-.15-.27-.22-.6-.22-.98,0-.29,.06-.56,.17-.8,.12-.25,.28-.46,.49-.63s.47-.32,.77-.42,.64-.15,1.02-.15c.46,0,.85,.06,1.17,.18,.32,.12,.58,.28,.78,.47,.2,.2,.35,.42,.44,.67s.13,.51,.13,.77c0,.37-.1,.69-.29,.96s-.44,.46-.76,.58h.61c.1,0,.19,.03,.26,.09s.11,.15,.11,.27-.04,.21-.11,.27c-.07,.06-.16,.09-.26,.09H1.82Zm2.29-3.61c-.58,0-1.03,.13-1.33,.41-.3,.27-.46,.62-.46,1.05,0,.46,.14,.82,.42,1.07s.73,.37,1.35,.37c.62,0,1.09-.14,1.4-.4,.31-.26,.47-.61,.47-1.06s-.16-.8-.49-1.06c-.33-.25-.79-.38-1.37-.38Z"/>
      <path class="cls-1" d="M4.33,41.5v-1.48c0-.29,.11-.44,.33-.44,.24,0,.35,.15,.35,.44v1.68c0,.2-.05,.34-.14,.41-.09,.08-.27,.12-.53,.12-.37,0-.72-.05-1.07-.14-.34-.09-.65-.24-.92-.45-.27-.21-.48-.48-.65-.81s-.25-.74-.25-1.21,.09-.88,.27-1.26,.42-.69,.72-.96c.3-.27,.65-.47,1.06-.61,.4-.14,.83-.21,1.29-.21s.88,.07,1.29,.21,.78,.34,1.09,.6c.31,.26,.56,.58,.75,.94,.19,.37,.28,.78,.28,1.24,0,.27-.03,.52-.08,.77-.05,.25-.15,.5-.29,.74-.08,.14-.17,.26-.25,.37s-.17,.2-.25,.27c-.08,.07-.16,.11-.23,.13s-.14,0-.2-.03c-.04-.02-.08-.06-.13-.1-.04-.04-.07-.09-.08-.15-.01-.06-.01-.12,0-.19s.06-.14,.13-.2c.14-.15,.26-.29,.35-.42,.09-.13,.17-.26,.22-.4,.06-.13,.09-.26,.12-.4,.02-.13,.03-.27,.03-.42,0-.31-.08-.6-.23-.87-.15-.27-.35-.5-.6-.7s-.54-.35-.87-.47c-.33-.11-.67-.17-1.02-.17s-.71,.06-1.04,.17c-.33,.12-.62,.27-.86,.48-.25,.2-.44,.45-.59,.73s-.22,.59-.22,.93,.06,.63,.18,.87,.28,.43,.49,.58c.21,.15,.44,.26,.7,.33s.54,.1,.82,.1Z"/>
      <path class="cls-1" d="M1.46,45.36c0-.36,.07-.67,.21-.94s.32-.49,.55-.67,.5-.31,.81-.4c.31-.09,.64-.13,.99-.13s.68,.04,1,.13,.6,.22,.84,.4c.24,.18,.43,.4,.58,.67s.21,.58,.21,.93c0,.33-.06,.62-.19,.87s-.29,.44-.49,.59c-.21,.15-.44,.26-.71,.34-.27,.07-.55,.11-.85,.11-.23,0-.39-.03-.49-.09-.1-.06-.14-.17-.14-.33v-2.9c-.2,0-.4,.02-.6,.08-.2,.06-.38,.15-.54,.27-.16,.12-.29,.27-.4,.45s-.15,.39-.15,.62c0,.3,.04,.56,.12,.77s.22,.39,.4,.54c.07,.06,.11,.12,.13,.18,.01,.06,.02,.11,0,.15-.01,.04-.04,.08-.07,.11-.03,.03-.07,.05-.1,.06-.07,.04-.17,.04-.3-.02-.12-.06-.25-.17-.37-.33s-.22-.36-.31-.61-.13-.54-.13-.87Zm2.86,1.23c.2,0,.4-.02,.6-.05,.2-.03,.38-.1,.55-.19s.3-.22,.4-.39c.1-.16,.15-.37,.15-.63,0-.27-.06-.5-.18-.67s-.26-.32-.43-.42-.36-.18-.55-.22c-.2-.04-.38-.07-.54-.07v2.64Z"/>
      <path class="cls-1" d="M4.63,51.6c.5,0,.86-.1,1.06-.29,.2-.19,.31-.47,.31-.85,0-.16-.02-.32-.07-.48-.05-.16-.12-.31-.23-.44s-.24-.24-.41-.32c-.17-.08-.37-.12-.61-.12H1.89c-.22,0-.33-.12-.33-.35,0-.11,.03-.19,.09-.26,.06-.07,.14-.1,.24-.1H6.22c.11,0,.2,.03,.25,.1s.08,.15,.08,.26c0,.23-.11,.34-.33,.34h-.52c.11,.06,.22,.13,.33,.23,.11,.1,.21,.21,.3,.34s.16,.28,.22,.44c.06,.16,.08,.33,.08,.52,0,.24-.03,.46-.1,.67-.07,.21-.17,.38-.31,.53s-.32,.27-.53,.35c-.22,.09-.47,.13-.77,.13H1.89c-.22,0-.33-.12-.33-.35s.11-.35,.33-.35h2.74Z"/>
      <path class="cls-1" d="M1.46,55.42c0-.36,.07-.67,.21-.94s.32-.49,.55-.67,.5-.31,.81-.4c.31-.09,.64-.13,.99-.13s.68,.04,1,.13,.6,.22,.84,.4c.24,.18,.43,.4,.58,.67s.21,.58,.21,.93c0,.33-.06,.62-.19,.87s-.29,.44-.49,.59c-.21,.15-.44,.26-.71,.34-.27,.07-.55,.11-.85,.11-.23,0-.39-.03-.49-.09-.1-.06-.14-.17-.14-.33v-2.9c-.2,0-.4,.02-.6,.08-.2,.06-.38,.15-.54,.27-.16,.12-.29,.27-.4,.45s-.15,.39-.15,.62c0,.3,.04,.56,.12,.77s.22,.39,.4,.54c.07,.06,.11,.12,.13,.18,.01,.06,.02,.11,0,.15-.01,.04-.04,.08-.07,.11-.03,.03-.07,.05-.1,.06-.07,.04-.17,.04-.3-.02-.12-.06-.25-.17-.37-.33s-.22-.36-.31-.61-.13-.54-.13-.87Zm2.86,1.23c.2,0,.4-.02,.6-.05,.2-.03,.38-.1,.55-.19s.3-.22,.4-.39c.1-.16,.15-.37,.15-.63,0-.27-.06-.5-.18-.67s-.26-.32-.43-.42-.36-.18-.55-.22c-.2-.04-.38-.07-.54-.07v2.64Z"/>
      <path class="cls-1" d="M5.76,59.56H2.96c-.15,0-.28,.02-.4,.06-.12,.04-.21,.11-.28,.21-.07,.1-.1,.24-.1,.42,0,.14,.02,.27,.07,.37,.04,.11,.09,.21,.13,.31,.05,.11,.07,.21,.06,.29,0,.08-.07,.13-.17,.14-.1,.02-.19,0-.28-.08s-.16-.17-.22-.29c-.06-.12-.11-.26-.15-.42s-.06-.31-.06-.47c0-.19,.02-.36,.06-.51,.04-.15,.11-.28,.21-.4,.1-.11,.23-.2,.39-.26,.16-.06,.36-.09,.6-.09h2.95v-.42c0-.14,.03-.23,.09-.27,.06-.04,.14-.06,.26-.06,.14,0,.23,.03,.27,.1,.04,.07,.06,.15,.06,.26v.38h.54c.19,0,.33,.02,.44,.05s.16,.14,.16,.32c0,.16-.03,.25-.09,.29-.06,.04-.15,.06-.28,.06h-.76v1.15c0,.2-.02,.34-.06,.43-.04,.09-.13,.14-.27,.14-.14,0-.24-.05-.28-.14-.05-.1-.07-.25-.07-.45v-1.14Z"/>
      <path class="cls-1" d="M1.93,63.35c-.25,0-.37-.12-.37-.35s.12-.36,.37-.36H6.17c.14,0,.24,.03,.3,.1s.09,.16,.09,.26-.03,.19-.08,.26c-.06,.06-.16,.1-.31,.1H1.93Zm5.79-.83c.13,0,.24,.04,.33,.13s.14,.2,.14,.34-.05,.24-.14,.33-.2,.13-.33,.13-.24-.04-.33-.13c-.09-.09-.14-.2-.14-.33,0-.14,.05-.25,.14-.34,.09-.09,.21-.13,.33-.13Z"/>
      <path class="cls-1" d="M4.05,64.69c.33,0,.65,.05,.96,.16,.31,.11,.59,.27,.83,.47,.24,.21,.44,.46,.58,.75,.15,.29,.22,.62,.22,.99,0,.32-.05,.61-.16,.87s-.24,.48-.4,.64c-.07,.08-.16,.14-.26,.2s-.21,.06-.32,.01c-.03-.01-.07-.03-.1-.06s-.06-.07-.08-.12c-.02-.05-.02-.1,0-.16,.02-.06,.06-.12,.13-.18,.2-.17,.34-.35,.43-.55s.13-.42,.13-.67c0-.22-.05-.42-.15-.62s-.24-.37-.41-.52c-.17-.15-.38-.27-.62-.36-.24-.09-.5-.13-.79-.13s-.55,.05-.79,.14c-.24,.1-.45,.22-.62,.37-.17,.15-.31,.33-.41,.52-.1,.2-.14,.4-.14,.6,0,.27,.03,.49,.1,.68,.07,.19,.18,.35,.34,.5,.12,.11,.17,.22,.16,.31,0,.1-.06,.18-.15,.26-.06,.1-.15,.11-.26,.05-.12-.03-.24-.1-.34-.21-.1-.12-.19-.26-.26-.44s-.13-.36-.17-.56c-.04-.2-.06-.4-.06-.58,0-.37,.07-.69,.21-.99,.14-.29,.33-.54,.56-.74,.24-.2,.51-.36,.83-.47s.65-.16,1-.16Z"/>
      <path class="cls-1" d="M7.34,74.68H1.93c-.12,0-.22-.03-.28-.08-.06-.05-.09-.15-.09-.29s.03-.24,.1-.29c.06-.05,.16-.07,.27-.07H7.34v-1.5c0-.11,.02-.2,.07-.27,.05-.06,.14-.1,.26-.1,.12,0,.2,.03,.26,.1,.05,.07,.08,.16,.08,.26v3.72c0,.11-.03,.19-.09,.26s-.14,.1-.26,.1c-.12,0-.21-.04-.26-.12-.05-.08-.07-.16-.07-.25v-1.5Z"/>
      <path class="cls-1" d="M1.46,79.44c0-.36,.07-.67,.21-.94s.32-.49,.55-.67,.5-.31,.81-.4c.31-.09,.64-.13,.99-.13s.68,.04,1,.13,.6,.22,.84,.4c.24,.18,.43,.4,.58,.67s.21,.58,.21,.93c0,.33-.06,.62-.19,.87s-.29,.44-.49,.59c-.21,.15-.44,.26-.71,.34-.27,.07-.55,.11-.85,.11-.23,0-.39-.03-.49-.09-.1-.06-.14-.17-.14-.33v-2.9c-.2,0-.4,.02-.6,.08-.2,.06-.38,.15-.54,.27-.16,.12-.29,.27-.4,.45s-.15,.39-.15,.62c0,.3,.04,.56,.12,.77s.22,.39,.4,.54c.07,.06,.11,.12,.13,.18,.01,.06,.02,.11,0,.15-.01,.04-.04,.08-.07,.11-.03,.03-.07,.05-.1,.06-.07,.04-.17,.04-.3-.02-.12-.06-.25-.17-.37-.33s-.22-.36-.31-.61-.13-.54-.13-.87Zm2.86,1.23c.2,0,.4-.02,.6-.05,.2-.03,.38-.1,.55-.19s.3-.22,.4-.39c.1-.16,.15-.37,.15-.63,0-.27-.06-.5-.18-.67s-.26-.32-.43-.42-.36-.18-.55-.22c-.2-.04-.38-.07-.54-.07v2.64Z"/>
      <path class="cls-1" d="M2.14,84.04c0,.3,.08,.55,.23,.76,.16,.21,.35,.31,.6,.31,.11,0,.21-.02,.29-.05,.08-.03,.16-.1,.23-.19s.14-.22,.2-.38c.07-.16,.13-.37,.2-.62,.07-.26,.14-.49,.21-.67s.16-.35,.26-.47c.1-.12,.22-.22,.36-.27s.31-.09,.52-.09,.4,.04,.57,.13c.17,.09,.31,.21,.43,.36,.12,.15,.21,.33,.27,.53,.06,.2,.09,.42,.09,.65,0,.24-.03,.46-.08,.66s-.12,.37-.2,.51c-.08,.14-.17,.25-.26,.33-.09,.08-.17,.12-.26,.12-.1,0-.19-.02-.28-.07s-.13-.12-.13-.21c0-.04,.02-.09,.05-.13,.03-.04,.08-.11,.15-.19,.11-.14,.2-.29,.27-.43s.11-.34,.11-.6c0-.12-.01-.24-.04-.36-.03-.12-.07-.22-.14-.31-.06-.09-.14-.17-.23-.22s-.2-.08-.32-.08c-.11,0-.2,.02-.27,.06-.07,.04-.14,.11-.2,.21-.06,.1-.11,.22-.17,.38s-.11,.36-.18,.6c-.06,.21-.13,.41-.2,.6-.07,.19-.16,.35-.27,.48s-.24,.24-.39,.32c-.15,.08-.34,.12-.57,.12s-.44-.05-.62-.16c-.19-.11-.34-.25-.47-.42-.13-.17-.23-.37-.3-.58-.07-.21-.11-.43-.11-.66,0-.26,.03-.5,.1-.72,.07-.22,.15-.4,.25-.55,.1-.15,.2-.27,.3-.35,.1-.08,.19-.13,.26-.13,.07,0,.16,.02,.25,.06,.09,.04,.14,.11,.13,.21,0,.06-.04,.13-.11,.2-.07,.07-.15,.16-.23,.27-.08,.11-.16,.25-.22,.42-.07,.17-.1,.39-.1,.65Z"/>
      <path class="cls-1" d="M5.76,88.01H2.96c-.15,0-.28,.02-.4,.06-.12,.04-.21,.11-.28,.21-.07,.1-.1,.24-.1,.42,0,.14,.02,.27,.07,.37,.04,.11,.09,.21,.13,.31,.05,.11,.07,.21,.06,.29,0,.08-.07,.13-.17,.14-.1,.02-.19,0-.28-.08s-.16-.17-.22-.29c-.06-.12-.11-.26-.15-.42s-.06-.31-.06-.47c0-.19,.02-.36,.06-.51,.04-.15,.11-.28,.21-.4,.1-.11,.23-.2,.39-.26,.16-.06,.36-.09,.6-.09h2.95v-.42c0-.14,.03-.23,.09-.27,.06-.04,.14-.06,.26-.06,.14,0,.23,.03,.27,.1,.04,.07,.06,.15,.06,.26v.38h.54c.19,0,.33,.02,.44,.05s.16,.14,.16,.32c0,.16-.03,.25-.09,.29-.06,.04-.15,.06-.28,.06h-.76v1.15c0,.2-.02,.34-.06,.43-.04,.09-.13,.14-.27,.14-.14,0-.24-.05-.28-.14-.05-.1-.07-.25-.07-.45v-1.14Z"/>
      <path class="cls-1" d="M1.93,91.81c-.25,0-.37-.12-.37-.35s.12-.36,.37-.36H6.17c.14,0,.24,.03,.3,.1s.09,.16,.09,.26-.03,.19-.08,.26c-.06,.06-.16,.1-.31,.1H1.93Zm5.79-.83c.13,0,.24,.04,.33,.13s.14,.2,.14,.34-.05,.24-.14,.33-.2,.13-.33,.13-.24-.04-.33-.13c-.09-.09-.14-.2-.14-.33,0-.14,.05-.25,.14-.34,.09-.09,.21-.13,.33-.13Z"/>
      <path class="cls-1" d="M4.63,96.64c.5,0,.86-.1,1.06-.29,.2-.19,.31-.47,.31-.85,0-.16-.02-.32-.07-.48-.05-.16-.12-.31-.23-.44s-.24-.24-.41-.32c-.17-.08-.37-.12-.61-.12H1.89c-.22,0-.33-.12-.33-.35,0-.11,.03-.19,.09-.26,.06-.07,.14-.1,.24-.1H6.22c.11,0,.2,.03,.25,.1s.08,.15,.08,.26c0,.23-.11,.34-.33,.34h-.52c.11,.06,.22,.13,.33,.23,.11,.1,.21,.21,.3,.34s.16,.28,.22,.44c.06,.16,.08,.33,.08,.52,0,.24-.03,.46-.1,.67-.07,.21-.17,.38-.31,.53s-.32,.27-.53,.35c-.22,.09-.47,.13-.77,.13H1.89c-.22,0-.33-.12-.33-.35s.11-.35,.33-.35h2.74Z"/>
      <path class="cls-1" d="M1.82,102.67c-.27,0-.52-.05-.74-.16-.22-.11-.42-.25-.58-.45s-.29-.43-.37-.71-.13-.59-.13-.93c0-.16,.02-.33,.05-.52,.03-.19,.08-.36,.14-.53,.06-.17,.13-.31,.21-.43,.08-.12,.17-.2,.27-.24,.06-.05,.13-.08,.21-.08s.17,.03,.26,.1c.13,.1,.13,.21,0,.34-.14,.14-.25,.34-.34,.59s-.13,.53-.12,.82c.01,.43,.12,.78,.32,1.05,.2,.26,.48,.4,.83,.4h.72c-.3-.14-.53-.35-.67-.62-.15-.27-.22-.6-.22-.98,0-.29,.06-.56,.17-.8,.12-.25,.28-.46,.49-.63s.47-.32,.77-.42,.64-.15,1.02-.15c.46,0,.85,.06,1.17,.18,.32,.12,.58,.28,.78,.47,.2,.2,.35,.42,.44,.67s.13,.51,.13,.77c0,.37-.1,.69-.29,.96s-.44,.46-.76,.58h.61c.1,0,.19,.03,.26,.09s.11,.15,.11,.27-.04,.21-.11,.27c-.07,.06-.16,.09-.26,.09H1.82Zm2.29-3.61c-.58,0-1.03,.13-1.33,.41-.3,.27-.46,.62-.46,1.05,0,.46,.14,.82,.42,1.07s.73,.37,1.35,.37c.62,0,1.09-.14,1.4-.4,.31-.26,.47-.61,.47-1.06s-.16-.8-.49-1.06c-.33-.25-.79-.38-1.37-.38Z"/>
      <path class="cls-1" d="M7.56,106.53c.18,0,.3,.03,.36,.1s.09,.21,.09,.43v1.47c0,.7-.16,1.22-.47,1.55-.31,.33-.81,.5-1.48,.5-1.33,0-1.99-.69-1.99-2.06v-1.27H1.93c-.12,0-.21-.03-.27-.08-.07-.06-.1-.15-.1-.28,0-.14,.04-.23,.11-.29,.07-.06,.16-.08,.27-.08H7.56Zm-2.87,.73v1.27c0,.48,.11,.82,.33,1.02,.22,.2,.56,.31,1.02,.31s.8-.11,1-.34c.21-.23,.31-.56,.31-.99v-1.27h-2.66Z"/>
      <path class="cls-1" d="M8.18,111.81c.12,0,.21,.03,.27,.08s.08,.14,.08,.27c0,.14-.03,.23-.09,.28-.06,.05-.15,.08-.27,.08H1.88c-.22,0-.33-.12-.33-.36s.11-.35,.33-.35h6.3Z"/>
      <path class="cls-1" d="M2.51,117.45c-.32-.15-.57-.35-.74-.59-.17-.25-.26-.56-.26-.94,0-.3,.06-.58,.18-.83s.29-.47,.51-.65c.22-.18,.49-.32,.79-.42,.31-.1,.65-.15,1.03-.15,.46,0,.85,.06,1.18,.17,.33,.11,.6,.27,.81,.46,.21,.19,.36,.41,.46,.67,.1,.25,.14,.52,.14,.8,0,.37-.11,.69-.33,.94s-.47,.44-.79,.56h.68c.1,0,.19,.03,.26,.09s.11,.15,.11,.27c0,.12-.05,.21-.12,.27s-.16,.08-.26,.08H1.93c-.1,0-.18-.03-.26-.08s-.11-.15-.12-.28c0-.14,.04-.23,.11-.29,.08-.06,.16-.08,.26-.08h.58Zm1.52-2.84c-.6,0-1.06,.14-1.4,.4-.33,.26-.5,.63-.5,1.1,0,.24,.05,.44,.14,.61,.1,.17,.23,.31,.4,.42,.17,.11,.37,.2,.6,.25,.23,.06,.48,.08,.74,.08s.52-.03,.76-.09c.24-.06,.45-.15,.62-.27,.18-.12,.32-.26,.42-.43,.11-.17,.16-.37,.16-.59,0-.25-.04-.47-.13-.66s-.22-.34-.4-.46-.38-.22-.62-.27c-.24-.06-.51-.09-.8-.09Z"/>
      <path class="cls-1" d="M5.76,120.5H2.96c-.15,0-.28,.02-.4,.06-.12,.04-.21,.11-.28,.21-.07,.1-.1,.24-.1,.42,0,.14,.02,.27,.07,.37,.04,.11,.09,.21,.13,.31,.05,.11,.07,.21,.06,.29,0,.08-.07,.13-.17,.14-.1,.02-.19,0-.28-.08s-.16-.17-.22-.29c-.06-.12-.11-.26-.15-.42s-.06-.31-.06-.47c0-.19,.02-.36,.06-.51,.04-.15,.11-.28,.21-.4,.1-.11,.23-.2,.39-.26,.16-.06,.36-.09,.6-.09h2.95v-.42c0-.14,.03-.23,.09-.27,.06-.04,.14-.06,.26-.06,.14,0,.23,.03,.27,.1,.04,.07,.06,.15,.06,.26v.38h.54c.19,0,.33,.02,.44,.05s.16,.14,.16,.32c0,.16-.03,.25-.09,.29-.06,.04-.15,.06-.28,.06h-.76v1.15c0,.2-.02,.34-.06,.43-.04,.09-.13,.14-.27,.14-.14,0-.24-.05-.28-.14-.05-.1-.07-.25-.07-.45v-1.14Z"/>
      <path class="cls-1" d="M6.48,124.19h.5c.27,0,.5,.04,.69,.13s.36,.21,.48,.37c.13,.16,.22,.33,.28,.54,.06,.2,.09,.42,.09,.65v.32c0,.1-.02,.2-.07,.29-.04,.09-.13,.13-.26,.13s-.21-.04-.25-.11c-.04-.07-.06-.16-.06-.26v-.26c0-.21-.03-.39-.09-.53s-.14-.25-.23-.33-.2-.14-.33-.18-.24-.05-.36-.05h-.4v1.22c0,.13-.02,.22-.07,.28-.05,.06-.13,.08-.27,.08-.12,0-.21-.03-.25-.09-.04-.06-.06-.15-.06-.27v-1.22H1.89c-.11,0-.19-.03-.25-.08s-.09-.15-.09-.28c0-.24,.11-.35,.33-.35h3.95v-.68c0-.11,.02-.19,.05-.25s.12-.09,.27-.09c.13,0,.22,.03,.26,.1,.04,.06,.06,.15,.06,.26v.65Z"/>
      <path class="cls-1" d="M6.65,129.46c0,.4-.07,.74-.21,1.02s-.33,.52-.58,.71c-.24,.19-.52,.32-.84,.41s-.65,.13-1,.13-.69-.04-1-.13-.59-.23-.82-.41c-.24-.19-.42-.42-.56-.71-.14-.29-.2-.62-.2-1.01s.07-.73,.21-1.01c.14-.29,.33-.52,.57-.7,.24-.18,.51-.32,.83-.4s.65-.13,1-.13,.69,.04,1,.12,.59,.22,.83,.4c.24,.18,.43,.42,.57,.7,.14,.28,.21,.62,.21,1.03Zm-4.6,0c0,.25,.05,.47,.14,.66s.22,.35,.4,.48c.17,.13,.38,.23,.62,.3,.24,.07,.51,.1,.8,.1s.57-.03,.81-.09c.25-.06,.46-.16,.63-.29,.18-.13,.31-.29,.41-.49,.1-.2,.14-.43,.14-.69s-.05-.5-.15-.69-.24-.35-.41-.47-.39-.21-.63-.27c-.24-.06-.5-.08-.79-.08s-.56,.03-.8,.1c-.24,.06-.45,.16-.62,.29s-.31,.29-.4,.47c-.1,.19-.14,.41-.14,.67Z"/>
      <path class="cls-1" d="M5.92,134.96c-.01-.19-.06-.36-.14-.52-.08-.16-.2-.3-.35-.42-.15-.12-.34-.22-.56-.29-.22-.07-.48-.11-.76-.11H1.89c-.22,0-.33-.12-.33-.35s.11-.35,.33-.35H6.22c.11,0,.2,.03,.25,.1s.08,.15,.08,.26c0,.11-.03,.19-.08,.25-.05,.06-.14,.09-.26,.09h-.74c.14,.07,.28,.16,.41,.25,.13,.09,.25,.2,.36,.32s.19,.25,.25,.39c.06,.14,.09,.3,.09,.47,0,.14-.03,.24-.09,.29-.06,.05-.14,.08-.22,.08-.15,0-.24-.05-.28-.14-.04-.1-.07-.2-.08-.32Z"/>
      <path class="cls-1" d="M4.57,142.99c.93,0,1.4-.37,1.4-1.1,0-.18-.03-.35-.07-.51-.05-.16-.13-.3-.25-.41-.11-.12-.26-.21-.45-.28-.19-.07-.41-.1-.68-.1H1.89c-.21,0-.32-.12-.33-.35,0-.24,.11-.36,.33-.36h2.46c.27,0,.5-.02,.71-.06,.21-.04,.38-.1,.51-.19s.24-.21,.31-.36c.07-.15,.1-.35,.1-.58,0-.16-.02-.31-.07-.46-.05-.15-.13-.28-.24-.4s-.26-.22-.45-.29c-.19-.07-.42-.11-.7-.11H1.89c-.22,0-.33-.12-.33-.37,0-.23,.11-.34,.33-.34H6.24c.11,0,.19,.03,.24,.08,.05,.06,.08,.15,.08,.28,0,.23-.11,.34-.32,.34h-.53c.13,.05,.25,.12,.36,.22,.11,.1,.21,.2,.28,.33,.08,.12,.14,.25,.19,.39,.05,.14,.07,.28,.07,.42,0,.38-.08,.71-.25,.98s-.4,.46-.71,.56c.28,.16,.51,.38,.69,.67,.18,.28,.27,.61,.27,.98,0,.23-.04,.45-.11,.66s-.18,.39-.32,.54-.32,.28-.53,.37c-.21,.09-.45,.14-.73,.14H1.89c-.1,0-.18-.02-.24-.06-.06-.04-.09-.12-.1-.25,0-.13,.03-.22,.08-.28,.05-.06,.14-.08,.26-.08h2.68Z"/>
    </g>
    <polygon class="cls-2" points="43.79 190.44 101.35 190.44 45.39 0 99.76 .17 43.79 190.44"/>
  </g>
</svg>